<svg width="61" height="16" viewBox="0 0 61 16" fill="none" xmlns="http://www.w3.org/2000/svg">
<g clip-path="url(#clip0_61_254)">
<mask id="mask0_61_254" style="mask-type:luminance" maskUnits="userSpaceOnUse" x="0" y="0" width="61" height="16">
<path d="M60.5 0.5H0.5V15.5H60.5V0.5Z" fill="white"/>
</mask>
<g mask="url(#mask0_61_254)">
<mask id="mask1_61_254" style="mask-type:luminance" maskUnits="userSpaceOnUse" x="0" y="0" width="61" height="16">
<path d="M60.5 0.5H0.5V15.5H60.5V0.5Z" fill="white"/>
</mask>
<g mask="url(#mask1_61_254)">
<path fill-rule="evenodd" clip-rule="evenodd" d="M8.98593 15.5L15.6391 9.04531H15.6375C18.2594 6.50313 19.3235 6.11718 24.3234 6.11718H44.264L50.0015 0.5H23.5672C16.875 0.5 14.9828 1.1375 11.0578 5.02188L0.5 15.5H8.98593ZM24.4437 7.01407H43.4079L38.1485 12.2734H24.5422C22.0484 12.2734 21.4968 12.3906 20.2593 13.6281L18.3875 15.5H10.5187L16.3359 9.68281C18.6203 7.4 19.4079 7.01407 24.4437 7.01407ZM60.5 0.5L45.4593 15.5H36.1578L51.1578 0.5H60.5ZM50.5968 15.025C50.9094 15.3422 51.3031 15.5 51.7766 15.5C52.25 15.5 52.6391 15.3422 52.9469 15.0281C53.2546 14.7141 53.4078 14.325 53.4078 13.8625C53.4078 13.4 53.2531 13.0109 52.9438 12.6937C52.6344 12.3766 52.2438 12.2188 51.7704 12.2188C51.2969 12.2188 50.9047 12.3766 50.5938 12.6906C50.2827 13.0047 50.1266 13.3938 50.1266 13.8562C50.1266 14.3187 50.2828 14.7078 50.5968 15.025ZM50.7922 12.8797C51.0547 12.6109 51.3796 12.4766 51.7672 12.4766C52.1562 12.4766 52.4812 12.6109 52.7422 12.8797C53.0032 13.1484 53.1344 13.475 53.1344 13.8594C53.1344 14.2437 53.0032 14.5687 52.7422 14.8359C52.4797 15.1031 52.1562 15.2359 51.7672 15.2359C51.3781 15.2359 51.0532 15.1016 50.7922 14.8328C50.5312 14.5641 50.3999 14.2391 50.3999 13.8562C50.3999 13.4734 50.5312 13.1484 50.7922 12.8797ZM51.4469 14.7734V14.1297L51.4484 14.1312H51.8156L52.1266 14.775H52.5063L52.1641 14.0844C52.2796 14.0313 52.361 13.9625 52.4094 13.8766C52.4578 13.7906 52.4812 13.6594 52.4812 13.4828C52.4812 13.3062 52.4219 13.1734 52.3031 13.0859C52.1844 12.9969 52.0062 12.9531 51.7704 12.9531H51.086V14.7734H51.4469ZM51.4406 13.8469V13.2344H51.7391C51.9969 13.2344 52.1249 13.3359 52.1249 13.5406C52.1249 13.6484 52.1 13.7266 52.0499 13.775C52.0016 13.8234 51.9204 13.8469 51.8079 13.8469H51.4406Z" fill="white"/>
</g>
</g>
</g>
<defs>
<clipPath id="clip0_61_254">
<rect width="60" height="15" fill="white" transform="translate(0.5 0.5)"/>
</clipPath>
</defs>
</svg>
