<svg width="60" height="16" viewBox="0 0 60 16" fill="none" xmlns="http://www.w3.org/2000/svg">
<g clip-path="url(#clip0_60_172)">
<mask id="mask0_60_172" style="mask-type:luminance" maskUnits="userSpaceOnUse" x="0" y="0" width="60" height="16">
<path d="M60 0.5H0V15.5H60V0.5Z" fill="white"/>
</mask>
<g mask="url(#mask0_60_172)">
<mask id="mask1_60_172" style="mask-type:luminance" maskUnits="userSpaceOnUse" x="0" y="0" width="60" height="16">
<path d="M60 0.5H0V15.5H60V0.5Z" fill="white"/>
</mask>
<g mask="url(#mask1_60_172)">
<path fill-rule="evenodd" clip-rule="evenodd" d="M8.48593 15.5L15.1391 9.04531H15.1375C17.7594 6.50313 18.8235 6.11718 23.8234 6.11718H43.764L49.5015 0.5H23.0672C16.375 0.5 14.4828 1.1375 10.5578 5.02188L0 15.5H8.48593ZM23.9437 7.01407H42.9079L37.6485 12.2734H24.0422C21.5484 12.2734 20.9968 12.3906 19.7593 13.6281L17.8875 15.5H10.0187L15.8359 9.68281C18.1203 7.4 18.9079 7.01407 23.9437 7.01407ZM60 0.5L44.9593 15.5H35.6578L50.6578 0.5H60ZM50.0968 15.025C50.4094 15.3422 50.8031 15.5 51.2766 15.5C51.75 15.5 52.1391 15.3422 52.4469 15.0281C52.7546 14.7141 52.9078 14.325 52.9078 13.8625C52.9078 13.4 52.7531 13.0109 52.4438 12.6937C52.1344 12.3766 51.7438 12.2188 51.2704 12.2188C50.7969 12.2188 50.4047 12.3766 50.0938 12.6906C49.7827 13.0047 49.6266 13.3938 49.6266 13.8562C49.6266 14.3187 49.7828 14.7078 50.0968 15.025ZM50.2922 12.8797C50.5547 12.6109 50.8796 12.4766 51.2672 12.4766C51.6562 12.4766 51.9812 12.6109 52.2422 12.8797C52.5032 13.1484 52.6344 13.475 52.6344 13.8594C52.6344 14.2437 52.5032 14.5687 52.2422 14.8359C51.9797 15.1031 51.6562 15.2359 51.2672 15.2359C50.8781 15.2359 50.5532 15.1016 50.2922 14.8328C50.0312 14.5641 49.8999 14.2391 49.8999 13.8562C49.8999 13.4734 50.0312 13.1484 50.2922 12.8797ZM50.9469 14.7734V14.1297L50.9484 14.1312H51.3156L51.6266 14.775H52.0063L51.6641 14.0844C51.7796 14.0313 51.861 13.9625 51.9094 13.8766C51.9578 13.7906 51.9812 13.6594 51.9812 13.4828C51.9812 13.3062 51.9219 13.1734 51.8031 13.0859C51.6844 12.9969 51.5062 12.9531 51.2704 12.9531H50.586V14.7734H50.9469ZM50.9406 13.8469V13.2344H51.2391C51.4969 13.2344 51.6249 13.3359 51.6249 13.5406C51.6249 13.6484 51.6 13.7266 51.5499 13.775C51.5016 13.8234 51.4204 13.8469 51.3079 13.8469H50.9406Z" fill="#E10600"/>
</g>
</g>
</g>
<defs>
<clipPath id="clip0_60_172">
<rect width="60" height="15" fill="white" transform="translate(0 0.5)"/>
</clipPath>
</defs>
</svg>
